<svg version="1.0" xmlns="http://www.w3.org/2000/svg" width="1706.667" height="1706.667" viewBox="0 0 1280 1280">
	<path d="M80 53v27h93l13.6 18.2c23.2 31.1 46.8 67.7 66.1 102.3C313.2 309 352.2 430.1 366 552.4c4.5 39.9 5.4 58.2 5.4 106.1 0 47.9-.9 66.1-5.4 106.1-2.7 23.4-8.1 57.3-13 81.5l-3.9 19.3-37.8 37.8-37.8 37.8 19.2 19.2 19.3 19.3 37.7-37.6 37.8-37.6 24-4.7c98.2-19 191.2-22.9 288-12.1 108.1 12.1 213.1 42.9 310.5 91.1 55.1 27.2 97.4 53.1 146.8 89.8l16.2 12.1V1227h54V26H80v27zm374.7 37.4C574 195.7 634.3 353.9 615.5 512c-3.3 27.2-7.8 48.4-18.2 85.6l-7.6 27.2-86.5 86.3-86.4 86.4.6-5c6.6-50.8 8-74.2 8.1-133 0-54-.4-64.3-4.6-104.5-16.1-157-70.5-309.4-157.7-442.5-5.7-8.8-13.1-19.7-16.3-24.3L241 80h202l11.7 10.4zm268.7-6.8c68.8 27.4 119.8 87.3 136.1 159.9 8.1 36.3 7.3 71.3-2.7 108.2l-2.2 8.3-94.9 94.7c-75.2 75.2-94.8 94.2-94.3 91.8 6.2-31.9 9.3-91.7 6.7-127.7-7.9-107.6-44-204.8-107.3-289.4-11.3-15.1-25.3-31.8-35.7-42.7l-6.4-6.7h191.6l9.1 3.6zM1027 187.5 919.5 295l-.6-15.7c-1.5-36.7-9.7-70.4-25.9-105.6-13.8-30.3-38.2-63.7-63.1-86.5l-8-7.2h312.6L1027 187.5zm146 87.5v156l-7.1-7.7c-15.2-16.8-40.3-37.2-60-48.9-42.2-25-85.5-38.1-132.7-40.1l-15.4-.6 107.4-107.4c59-59 107.4-107.3 107.5-107.3.2 0 .3 70.2.3 156zM992.5 390.5c38.8 5.9 75.5 21.4 105.7 44.7 11.2 8.7 26.7 23.5 35.3 33.9 14.1 16.8 28.9 41.9 36.6 61.8l2.9 7.6v191.7l-8.1-7.6c-24.5-23-59.2-48.8-91.4-67.8-86.2-50.7-187.5-77-287-74.4-23.8.6-54 3.2-72.8 6.4l-10.8 1.8 94.7-94.7 94.7-94.7 7.1-2.1c10.4-3.1 23.8-5.8 34.6-7 5.2-.6 11.1-1.3 13-1.5 6.9-.8 35.7.4 45.5 1.9zM844 636.6c98.4 9.1 190.9 47.9 268.5 112.5 11.5 9.6 45.2 42.9 54.4 53.7l6.1 7.3v101c0 80.5-.3 100.9-1.2 100.3-.7-.4-6.9-4.7-13.8-9.5-70.8-49.1-157.9-92.8-242-121.4-140.4-47.6-285.3-63.3-432.6-47-12.2 1.4-23.7 2.8-25.5 3.1-2.9.5 8.6-11.4 83.1-86l86.5-86.6 17.5-5c57.4-16.5 88.9-22.1 136.5-24.4 12.3-.6 46.5.5 62.5 2z" fill="currentColor" />
</svg>
